# xmcd
#
# Track frame offsets:
#	150
#	13322
#	24829
#	35619
#	50198
#	65432
#	77510
#	92827
#	101158
#	109112
#	119888
#	133220
#	149311
#	158666
#	170891
#
# Disc length: 2468 seconds
#
# Revision: 1
# Processed by: cddbd v1.5.1PL2 Copyright (c) Steve Scherf et al.
# Submitted via: audiograbber 1.83.01
#
DISCID=da09a20f
DTITLE=Liza Minelli - Liza Minelli
DYEAR=1900
DGENRE=
TTITLE0=The Man I Love
TTITLE1=For No One
TTITLE2=Love Story
TTITLE3=Come Rain Or Come Shine
TTITLE4=On A Slow Boat To China
TTITLE5=Can't Help Loving Dat Man
TTITLE6=Leaving On A Jet Plane
TTITLE7=Come Saturday Morning
TTITLE8=MacArthur Park
TTITLE9=Didn't We
TTITLE10=Nevertheless
TTITLE11=The Look of Love
TTITLE12=The Wailing of the Willow
TTITLE13=Love For Sale
TTITLE14=My Mammy
EXTD=Schallplatte
EXTT0=
EXTT1=
EXTT2=
EXTT3=
EXTT4=
EXTT5=
EXTT6=
EXTT7=
EXTT8=
EXTT9=
EXTT10=
EXTT11=
EXTT12=
EXTT13=
EXTT14=
PLAYORDER=
